<svg width="16" height="17" viewBox="0 0 16 17" fill="none" xmlns="http://www.w3.org/2000/svg">
<path d="M11.5001 11.5111C11.4536 11.4642 11.3983 11.427 11.3373 11.4016C11.2764 11.3762 11.2111 11.3632 11.1451 11.3632C11.079 11.3632 11.0137 11.3762 10.9528 11.4016C10.8918 11.427 10.8365 11.4642 10.7901 11.5111L8.49005 13.8111V2.04108C8.49005 1.90847 8.43737 1.78129 8.3436 1.68752C8.24984 1.59376 8.12266 1.54108 7.99005 1.54108C7.85744 1.54108 7.73027 1.59376 7.6365 1.68752C7.54273 1.78129 7.49005 1.90847 7.49005 2.04108V13.8011L5.20505 11.5111C5.11137 11.418 4.98464 11.3657 4.85255 11.3657C4.72046 11.3657 4.59373 11.418 4.50005 11.5111C4.40692 11.6048 4.35465 11.7315 4.35465 11.8636C4.35465 11.9957 4.40692 12.1224 4.50005 12.2161L7.68005 15.3961C7.72112 15.4389 7.77041 15.4729 7.82497 15.4962C7.87953 15.5195 7.93824 15.5315 7.99755 15.5315C8.05687 15.5315 8.11557 15.5195 8.17013 15.4962C8.22469 15.4729 8.27399 15.4389 8.31505 15.3961L11.5001 12.2211C11.5469 12.1746 11.5841 12.1193 11.6095 12.0584C11.6349 11.9974 11.6479 11.9321 11.6479 11.8661C11.6479 11.8001 11.6349 11.7347 11.6095 11.6738C11.5841 11.6129 11.5469 11.5576 11.5001 11.5111Z" fill="white"/>
</svg>
