<svg width="15" height="9" viewBox="0 0 15 9" fill="none" xmlns="http://www.w3.org/2000/svg">
<path d="M10.5 1.01105C10.4531 1.05753 10.4159 1.11283 10.3906 1.17376C10.3652 1.23469 10.3521 1.30004 10.3521 1.36605C10.3521 1.43206 10.3652 1.49741 10.3906 1.55834C10.4159 1.61927 10.4531 1.67457 10.5 1.72105L12.8 4.02105H1.03C0.897391 4.02105 0.770214 4.07373 0.676445 4.1675C0.582677 4.26127 0.529999 4.38844 0.529999 4.52105C0.529999 4.65366 0.582677 4.78084 0.676445 4.8746C0.770214 4.96837 0.897391 5.02105 1.03 5.02105H12.79L10.5 7.30605C10.4069 7.39973 10.3546 7.52646 10.3546 7.65855C10.3546 7.79064 10.4069 7.91737 10.5 8.01105C10.5937 8.10418 10.7204 8.15645 10.8525 8.15645C10.9846 8.15645 11.1113 8.10418 11.205 8.01105L14.385 4.83105C14.4278 4.78999 14.4619 4.74069 14.4851 4.68613C14.5084 4.63157 14.5204 4.57287 14.5204 4.51355C14.5204 4.45424 14.5084 4.39553 14.4851 4.34097C14.4619 4.28641 14.4278 4.23712 14.385 4.19605L11.21 1.01105C11.1635 0.964186 11.1082 0.926989 11.0473 0.901605C10.9864 0.876221 10.921 0.863152 10.855 0.863152C10.789 0.863152 10.7236 0.876221 10.6627 0.901605C10.6018 0.926989 10.5465 0.964186 10.5 1.01105Z" fill="#4C7077"/>
</svg>
