<svg width="23" height="19" viewBox="0 0 23 19" fill="none" xmlns="http://www.w3.org/2000/svg">
<path d="M20.6418 7.9375H13.3125V1.61914C13.3125 0.793945 12.5025 0.125 11.5 0.125C10.4975 0.125 9.6875 0.793945 9.6875 1.61914V7.9375H2.3582C1.40098 7.9375 0.625 8.63574 0.625 9.5C0.625 10.3643 1.40098 11.0625 2.3582 11.0625H9.6875V17.3809C9.6875 18.2061 10.4975 18.875 11.5 18.875C12.5025 18.875 13.3125 18.2061 13.3125 17.3809V11.0625H20.6418C21.599 11.0625 22.375 10.3643 22.375 9.5C22.375 8.63574 21.599 7.9375 20.6418 7.9375Z" fill="#E7AC43"/>
</svg>
