<svg width="19" height="19" viewBox="0 0 19 19" fill="none" xmlns="http://www.w3.org/2000/svg">
<g clip-path="url(#clip0_108_281)">
<path d="M19.0002 0.678571V5.42857C19.0002 5.80179 18.6949 6.10714 18.3216 6.10714C17.9484 6.10714 17.6431 5.80179 17.6431 5.42857V2.31393L12.6963 7.26071C12.4316 7.52536 12.0041 7.52536 11.7395 7.26071C11.4749 6.99607 11.4749 6.56857 11.7395 6.30393L16.6863 1.35714H13.5716C13.1984 1.35714 12.8931 1.05179 12.8931 0.678571C12.8931 0.305357 13.1984 0 13.5716 0H18.3216C18.7016 0 19.0002 0.312143 19.0002 0.678571Z" fill="white"/>
<path d="M7.2675 11.7325C7.53214 11.9971 7.53214 12.4246 7.2675 12.6893L2.32071 17.636H5.43536C5.80857 17.636 6.11393 17.9414 6.11393 18.3146C6.11393 18.6878 5.80857 18.9932 5.43536 18.9932H0.678571C0.305357 18.9932 0 18.6878 0 18.3146V13.5646C0 13.1914 0.305357 12.886 0.678571 12.886C1.05179 12.886 1.35714 13.1914 1.35714 13.5646V16.6793L6.30393 11.7325C6.56857 11.4678 6.99607 11.4678 7.26071 11.7325H7.2675Z" fill="white"/>
<path d="M19.0002 13.5715V18.3215C19.0002 18.6947 18.6949 19 18.3216 19H13.5716C13.1984 19 12.8931 18.6947 12.8931 18.3215C12.8931 17.9482 13.1984 17.6429 13.5716 17.6429H16.6863L11.7395 12.6961C11.4749 12.4315 11.4749 12.004 11.7395 11.7393C12.0041 11.4747 12.4316 11.4747 12.6963 11.7393L17.6431 16.6861V13.5715C17.6431 13.1982 17.9484 12.8929 18.3216 12.8929C18.6949 12.8929 19.0002 13.1982 19.0002 13.5715Z" fill="white"/>
<path d="M7.2675 6.30393C7.53214 6.56857 7.53214 6.99607 7.2675 7.26071C7.00286 7.52536 6.57536 7.52536 6.31071 7.26071L1.35714 2.31393V5.42857C1.35714 5.80179 1.05179 6.10714 0.678571 6.10714C0.305357 6.10714 0 5.80179 0 5.42857V0.678571C0 0.305357 0.305357 0 0.678571 0H5.42857C5.80179 0 6.10714 0.305357 6.10714 0.678571C6.10714 1.05179 5.80179 1.35714 5.42857 1.35714H2.31393L7.26071 6.30393H7.2675Z" fill="white"/>
</g>
<defs>
<clipPath id="clip0_108_281">
<rect width="19" height="19" fill="white"/>
</clipPath>
</defs>
</svg>
