<?xml version="1.0" encoding="UTF-8"?>
<svg id="Layer_1" data-name="Layer 1" xmlns="http://www.w3.org/2000/svg" xmlns:xlink="http://www.w3.org/1999/xlink" viewBox="0 0 49 49">
  <defs>
    <style>
      .cls-1 {
        fill: none;
      }

      .cls-2 {
        fill: #fff;
      }

      .cls-3 {
        fill: #231f20;
        opacity: .5;
      }

      .cls-4 {
        clip-path: url(#clippath);
      }
    </style>
    <clipPath id="clippath">
      <rect class="cls-1" x="4.5" y="4.5" width="40" height="40"/>
    </clipPath>
  </defs>
  <rect class="cls-3" width="49" height="49" rx="1.95" ry="1.95"/>
  <g class="cls-4">
    <g>
      <path class="cls-2" d="M44.5,5.93v10c0,.79-.64,1.43-1.43,1.43s-1.43-.64-1.43-1.43v-6.56l-10.41,10.41c-.56.56-1.46.56-2.01,0-.56-.56-.56-1.46,0-2.01l10.41-10.41h-6.56c-.79,0-1.43-.64-1.43-1.43s.64-1.43,1.43-1.43h10c.8,0,1.43.66,1.43,1.43Z"/>
      <path class="cls-2" d="M19.8,29.2c.56.56.56,1.46,0,2.01l-10.41,10.41h6.56c.79,0,1.43.64,1.43,1.43s-.64,1.43-1.43,1.43H5.93c-.79,0-1.43-.64-1.43-1.43v-10c0-.79.64-1.43,1.43-1.43s1.43.64,1.43,1.43v6.56l10.41-10.41c.56-.56,1.46-.56,2.01,0h.01Z"/>
      <path class="cls-2" d="M44.5,33.07v10c0,.79-.64,1.43-1.43,1.43h-10c-.79,0-1.43-.64-1.43-1.43s.64-1.43,1.43-1.43h6.56l-10.41-10.41c-.56-.56-.56-1.46,0-2.01.56-.56,1.46-.56,2.01,0l10.41,10.41v-6.56c0-.79.64-1.43,1.43-1.43s1.43.64,1.43,1.43Z"/>
      <path class="cls-2" d="M19.8,17.77c.56.56.56,1.46,0,2.01-.56.56-1.46.56-2.01,0L7.36,9.37v6.56c0,.79-.64,1.43-1.43,1.43s-1.43-.64-1.43-1.43V5.93c0-.79.64-1.43,1.43-1.43h10c.79,0,1.43.64,1.43,1.43s-.64,1.43-1.43,1.43h-6.56l10.41,10.41h.01Z"/>
    </g>
  </g>
</svg>