<svg width="22" height="22" viewBox="0 0 22 22" fill="none" xmlns="http://www.w3.org/2000/svg">
<path d="M21.2122 11.3767C20.9847 11.9831 20.4209 12.375 19.7754 12.375H19.2501V19.9375C19.2501 20.317 18.9421 20.625 18.5626 20.625H14.4376V15.8125C14.4376 13.9171 12.8956 12.375 11.0001 12.375C9.10468 12.375 7.56262 13.9171 7.56262 15.8125V20.625H3.43762C3.05812 20.625 2.75012 20.317 2.75012 19.9375V12.375H2.22418C1.57862 12.375 1.01487 11.9838 0.787305 11.3774C0.559742 10.7711 0.726805 10.1042 1.21355 9.67931L9.24287 2.07556C10.2287 1.14262 11.7722 1.14262 12.7574 2.07556L20.8059 9.69718C21.2721 10.1035 21.4398 10.7704 21.2122 11.3767Z" fill="#4C7077"/>
</svg>
