<?xml version="1.0" encoding="UTF-8"?><svg id="Layer_2" xmlns="http://www.w3.org/2000/svg" viewBox="0 0 1000 241.4853"><g id="Components"><g id="_35288aa0-5bf3-4b7c-9a88-660ed0a02a11_1"><path d="M192.4431,174.0314c-67.552,61.3727-151.0076,51.0178-162.5116,49.3924,2.368-16.2679,13.4516-79.4342,69.6819-125.0154,42.6806-34.5956,90.2374-40.7609,90.4896-40.1164,0,.6585-40.5368,8.5473-77.01,37.0898-38.393,30.0839-57.7576,71.6995-68.2807,106.7997,78.3273,9.9766,150.251-23.232,179.9985-81.2838,20.878-40.733,14.9228-81.8863,11.1115-99.7516-13.7177-2.1999-100.5082-14.7967-161.4886,41.8539-31.513,29.2851-44.4041,66.1648-50.093,83.0072-13.4235,39.7942-12.849,74.7262-10.8453,95.478H.156c-1.0649-32.6341,2.326-93.7686,42.0221-150.6153,11.1115-15.9037,21.5786-26.4828,26.6369-31.331C131.2806-.2642,221.8684-1.0909,255.6514.3103c1.149,8.9397,11.7841,105.5666-63.2082,173.7211Z" style="fill:#f1a91e;"/><path d="M412.6851,1.344v104.0986h-10.5609V22.3145l-37.1133,83.1281h-7.6941l-37.1137-82.8264v82.8264h-10.5605V1.344h11.1642l40.2817,90.2189L401.3701,1.344h11.315Z" style="fill:#427279;"/><path d="M451.8347,101.4445c-6.1856-3.47-11.0652-8.3968-14.6342-14.785-3.5715-6.386-5.3558-13.8538-5.3558-22.4039s1.8102-16.0153,5.4311-22.4035c3.6208-6.386,8.5476-11.3153,14.785-14.785,6.2352-3.47,13.2246-5.205,20.9709-5.205s14.7591,1.735,21.0458,5.205c6.2845,3.4697,11.2138,8.3989,14.785,14.785,3.569,6.3882,5.3558,13.8559,5.3558,22.4035,0,8.4486-1.8102,15.8929-5.4311,22.3287-3.6208,6.4375-8.5994,11.3902-14.9358,14.8602-6.3367,3.47-13.3779,5.205-21.1217,5.205s-14.7094-1.735-20.895-5.205ZM487.8167,93.7504c4.6248-2.4636,8.373-6.1856,11.2394-11.1642,2.8667-4.9786,4.2997-11.0889,4.2997-18.3306s-1.4096-13.3516-4.2241-18.3302c-2.817-4.9786-6.5394-8.6984-11.1642-11.1642-4.6276-2.4636-9.6556-3.6964-15.087-3.6964s-10.4615,1.2329-15.0866,3.6964c-4.6273,2.4657-8.3237,6.1856-11.0886,11.1642-2.7677,4.9786-4.1489,11.0886-4.1489,18.3302s1.3812,13.352,4.1489,18.3306c2.7649,4.9786,6.4354,8.7006,11.0133,11.1642,4.5755,2.4657,9.58,3.6961,15.011,3.6961s10.4594-1.2303,15.087-3.6961Z" style="fill:#427279;"/><path d="M596.2899,30.6876c6.2352,6.0866,9.3539,14.9124,9.3539,26.4776v48.2775h-10.41v-47.0705c0-8.9508-2.2393-15.7893-6.7136-20.5181-4.4765-4.7266-10.5864-7.0908-18.3302-7.0908-7.9465,0-14.2828,2.5154-19.0095,7.5433-4.7288,5.0304-7.0908,12.4229-7.0908,22.1775v44.9586h-10.5605V23.069h10.5605v14.0305c2.6144-5.0279,6.386-8.8752,11.3153-11.5414,4.9268-2.6637,10.5087-3.9977,16.7461-3.9977,9.8561,0,17.9015,3.0431,24.1389,9.1271Z" style="fill:#427279;"/><path d="M672.1755,105.4426l-21.2722-33.1908-20.5181,33.1908h-11.1642l26.5528-41.187-26.2512-41.1866h11.9186l20.9705,32.738,20.3673-32.738h11.0133l-26.2512,40.7341,26.5528,41.6394h-11.9186Z" style="fill:#427279;"/><path d="M712.1541,31.9701v51.1442c0,5.0304.9546,8.5005,2.8664,10.4097,1.9096,1.9117,5.2806,2.8667,10.1084,2.8667h9.6556v9.0519h-11.3153c-7.4443,0-12.9744-1.735-16.5952-5.205-3.6208-3.47-5.4314-9.1768-5.4314-17.1233V31.9701h-11.4658v-8.9011h11.4658V2.4001h10.7117v20.6689h22.6303v8.9011h-22.6303Z" style="fill:#427279;"/><path d="M767.2946,101.4445c-6.1856-3.47-11.0652-8.3968-14.6342-14.785-3.5715-6.386-5.3558-13.8538-5.3558-22.4039s1.8102-16.0153,5.4311-22.4035c3.6208-6.386,8.5476-11.3153,14.785-14.785,6.2352-3.47,13.2246-5.205,20.9709-5.205s14.7591,1.735,21.0458,5.205c6.2845,3.4697,11.2138,8.3989,14.785,14.785,3.569,6.3882,5.3558,13.8559,5.3558,22.4035,0,8.4486-1.8102,15.8929-5.4311,22.3287-3.6208,6.4375-8.5994,11.3902-14.9358,14.8602-6.3367,3.47-13.3779,5.205-21.1217,5.205s-14.7094-1.735-20.895-5.205ZM803.2765,93.7504c4.6248-2.4636,8.373-6.1856,11.2394-11.1642,2.8667-4.9786,4.2997-11.0889,4.2997-18.3306s-1.4096-13.3516-4.2241-18.3302c-2.817-4.9786-6.5394-8.6984-11.1642-11.1642-4.6276-2.4636-9.6556-3.6964-15.087-3.6964s-10.4615,1.2329-15.0866,3.6964c-4.6273,2.4657-8.3237,6.1856-11.0886,11.1642-2.7677,4.9786-4.1489,11.0886-4.1489,18.3302s1.3812,13.352,4.1489,18.3306c2.7649,4.9786,6.4354,8.7006,11.0133,11.1642,4.5755,2.4657,9.58,3.6961,15.011,3.6961s10.4594-1.2303,15.087-3.6961Z" style="fill:#427279;"/><path d="M911.7497,30.6876c6.2352,6.0866,9.3539,14.9124,9.3539,26.4776v48.2775h-10.41v-47.0705c0-8.9508-2.2393-15.7893-6.7136-20.5181-4.4765-4.7266-10.5864-7.0908-18.3302-7.0908-7.9465,0-14.2828,2.5154-19.0095,7.5433-4.7288,5.0304-7.0908,12.4229-7.0908,22.1775v44.9586h-10.5605V23.069h10.5605v14.0305c2.6144-5.0279,6.386-8.8752,11.3153-11.5414,4.9268-2.6637,10.5087-3.9977,16.7461-3.9977,9.8561,0,17.9015,3.0431,24.1389,9.1271Z" style="fill:#427279;"/><path d="M395.0338,233.6798h-17.1989l-51.7478-78.3003v78.3003h-17.1989v-105.0039h17.1989l51.7478,78.1495v-78.1495h17.1989v105.0039Z" style="fill:#427279;"/><path d="M492.9457,150.5517v83.1281h-17.1989v-9.8067c-2.7159,3.4211-6.2611,6.1107-10.6365,8.0717-4.375,1.9611-9.0282,2.9416-13.9549,2.9416-6.5394,0-12.3974-1.3578-17.5761-4.0733-5.1816-2.7155-9.2549-6.737-12.2203-12.0695-2.9679-5.3296-4.4505-11.7674-4.4505-19.3108v-48.8811h17.0481v46.3164c0,7.4443,1.8599,13.1515,5.5819,17.1233,3.7198,3.9747,8.7999,5.9595,15.2378,5.9595s11.541-1.9848,15.3131-5.9595c3.7717-3.9718,5.6575-9.679,5.6575-17.1233v-46.3164h17.1989Z" style="fill:#427279;"/><path d="M542.8052,152.7392c4.1723-2.3617,9.1275-3.5452,14.8606-3.5452v17.8025h-4.3753c-6.7395,0-11.843,1.7112-15.3131,5.1294-3.47,3.4203-5.205,9.3536-5.205,17.8022v43.7517h-17.1989v-83.1281h17.1989v12.0695c2.5129-4.2241,5.858-7.5174,10.0328-9.882Z" style="fill:#427279;"/><path d="M586.1023,231.4919c-5.1813-2.3621-9.2783-5.5815-12.2959-9.6556-3.0172-4.0733-4.6273-8.6228-4.8274-13.6533h17.8022c.3016,3.5218,1.9848,6.4638,5.0542,8.8262,3.0669,2.3642,6.9137,3.5449,11.5414,3.5449,4.8278,0,8.5735-.9287,11.2394-2.7911,2.6637-1.8596,3.9981-4.2475,3.9981-7.1661,0-3.1162-1.4852-5.4311-4.4505-6.94-2.9679-1.5086-7.6707-3.168-14.1061-4.9786-6.2374-1.7087-11.315-3.3685-15.2378-4.9786-3.9225-1.6076-7.3169-4.0733-10.1833-7.3925-2.8667-3.3188-4.2997-7.6941-4.2997-13.1252,0-4.4246,1.3059-8.4724,3.9225-12.145,2.614-3.6702,6.3601-6.5628,11.2397-8.6747,4.8771-2.1122,10.4853-3.1684,16.8216-3.1684,9.4525,0,17.0715,2.3905,22.8564,7.1661,5.7824,4.7785,8.8752,11.2916,9.2783,19.5375h-17.1989c-.3016-3.7198-1.8106-6.6877-4.5261-8.9011-2.7155-2.2112-6.3882-3.3192-11.0133-3.3192-4.5258,0-7.9958.8556-10.4097,2.5647-2.4139,1.7112-3.6208,3.9743-3.6208,6.7888,0,2.2138.8038,4.0737,2.4139,5.5823,1.6076,1.5086,3.569,2.6921,5.8839,3.5452,2.3124.856,5.7327,1.938,10.2589,3.244,6.0347,1.6097,10.9874,3.2436,14.8606,4.903,3.8706,1.6594,7.2154,4.0992,10.0324,7.3173,2.8149,3.2198,4.2738,7.4936,4.3753,12.8236,0,4.7288-1.3085,8.9533-3.9225,12.6731-2.6169,3.722-6.313,6.6377-11.0889,8.7499-4.7781,2.1122-10.3863,3.1684-16.8216,3.1684-6.5394,0-12.397-1.1835-17.5761-3.5456Z" style="fill:#427279;"/><path d="M729.6521,198.5275h-63.5153c.5021,6.6384,2.9653,11.9705,7.3925,15.9919,4.4246,4.024,9.8561,6.0347,16.2936,6.0347,9.2524,0,15.7893-3.8706,19.6128-11.6166h18.557c-2.5154,7.6448-7.0675,13.906-13.6536,18.7827-6.5887,4.8796-14.7616,7.3173-24.5161,7.3173-7.9465,0-15.0629-1.7847-21.3478-5.3555-6.2867-3.5694-11.216-8.5994-14.785-15.087-3.5712-6.4872-5.3555-14.005-5.3555-22.5547s1.7346-16.0675,5.2047-22.5547c3.47-6.4872,8.3475-11.4896,14.6342-15.0114,6.2845-3.5193,13.5028-5.2803,21.6494-5.2803,7.8453,0,14.8347,1.7112,20.9709,5.1294,6.1337,3.4207,10.9118,8.2222,14.3322,14.4078,3.4182,6.1859,5.1294,13.3023,5.1294,21.3478,0,3.1187-.2027,5.9357-.6033,8.4486ZM712.3024,184.6478c-.1015-6.3364-2.3646-11.414-6.7892-15.2375-4.4268-3.8213-9.9075-5.7331-16.4444-5.7331-5.9357,0-11.0133,1.8858-15.2378,5.6575-4.2241,3.7717-6.7395,8.8777-7.5433,15.3131h46.0148Z" style="fill:#427279;"/><path d="M774.3825,152.7392c4.1723-2.3617,9.1275-3.5452,14.8606-3.5452v17.8025h-4.3753c-6.7395,0-11.843,1.7112-15.3131,5.1294-3.47,3.4203-5.205,9.3536-5.205,17.8022v43.7517h-17.1989v-83.1281h17.1989v12.0695c2.5129-4.2241,5.858-7.5174,10.0328-9.882Z" style="fill:#427279;"/><path d="M805.9874,136.3704c-2.1122-2.1122-3.1684-4.7266-3.1684-7.8453,0-3.1162,1.0561-5.7331,3.1684-7.845,2.1122-2.1122,4.7263-3.1684,7.845-3.1684,3.0175,0,5.5823,1.0561,7.6945,3.1684,2.1119,2.1119,3.168,4.7288,3.168,7.845,0,3.1187-1.0561,5.7331-3.168,7.8453-2.1122,2.1119-4.677,3.168-7.6945,3.168-3.1187,0-5.7327-1.0561-7.845-3.168ZM822.281,150.5517v83.1281h-17.1989v-83.1281h17.1989Z" style="fill:#427279;"/><path d="M920.4946,198.5275h-63.5153c.5021,6.6384,2.9653,11.9705,7.3925,15.9919,4.4246,4.024,9.8561,6.0347,16.2936,6.0347,9.2524,0,15.7893-3.8706,19.6128-11.6166h18.557c-2.5154,7.6448-7.0675,13.906-13.6536,18.7827-6.5887,4.8796-14.7616,7.3173-24.5161,7.3173-7.9465,0-15.0629-1.7847-21.3478-5.3555-6.2867-3.5694-11.216-8.5994-14.785-15.087-3.5712-6.4872-5.3555-14.005-5.3555-22.5547s1.7346-16.0675,5.2047-22.5547c3.47-6.4872,8.3475-11.4896,14.6342-15.0114,6.2845-3.5193,13.5028-5.2803,21.6494-5.2803,7.8453,0,14.8347,1.7112,20.9709,5.1294,6.1337,3.4207,10.9118,8.2222,14.3322,14.4078,3.4182,6.1859,5.1294,13.3023,5.1294,21.3478,0,3.1187-.2027,5.9357-.6033,8.4486ZM903.1449,184.6478c-.1015-6.3364-2.3646-11.414-6.7892-15.2375-4.4268-3.8213-9.9075-5.7331-16.4444-5.7331-5.9357,0-11.0133,1.8858-15.2378,5.6575-4.2241,3.7717-6.7395,8.8777-7.5433,15.3131h46.0148Z" style="fill:#427279;"/><path d="M950.5908,231.4919c-5.1813-2.3621-9.2783-5.5815-12.2959-9.6556-3.0172-4.0733-4.6273-8.6228-4.8274-13.6533h17.8022c.3016,3.5218,1.9848,6.4638,5.0542,8.8262,3.0669,2.3642,6.9137,3.5449,11.5414,3.5449,4.8278,0,8.5735-.9287,11.2394-2.7911,2.6637-1.8596,3.9981-4.2475,3.9981-7.1661,0-3.1162-1.4852-5.4311-4.4505-6.94-2.9679-1.5086-7.6707-3.168-14.1061-4.9786-6.2374-1.7087-11.315-3.3685-15.2378-4.9786-3.9225-1.6076-7.3169-4.0733-10.1833-7.3925-2.8667-3.3188-4.2997-7.6941-4.2997-13.1252,0-4.4246,1.3059-8.4724,3.9225-12.145,2.614-3.6702,6.3601-6.5628,11.2397-8.6747,4.8771-2.1122,10.4853-3.1684,16.8216-3.1684,9.4525,0,17.0715,2.3905,22.8564,7.1661,5.7824,4.7785,8.8752,11.2916,9.2783,19.5375h-17.1989c-.3016-3.7198-1.8106-6.6877-4.5261-8.9011-2.7155-2.2112-6.3882-3.3192-11.0133-3.3192-4.5258,0-7.9958.8556-10.4097,2.5647-2.4139,1.7112-3.6208,3.9743-3.6208,6.7888,0,2.2138.8038,4.0737,2.4139,5.5823,1.6076,1.5086,3.569,2.6921,5.8839,3.5452,2.3124.856,5.7327,1.938,10.2589,3.244,6.0347,1.6097,10.9874,3.2436,14.8606,4.903,3.8706,1.6594,7.2154,4.0992,10.0324,7.3173,2.8149,3.2198,4.2738,7.4936,4.3753,12.8236,0,4.7288-1.3085,8.9533-3.9225,12.6731-2.6169,3.722-6.313,6.6377-11.0889,8.7499-4.7781,2.1122-10.3863,3.1684-16.8216,3.1684-6.5394,0-12.397-1.1835-17.5761-3.5456Z" style="fill:#427279;"/></g></g></svg>