<?xml version="1.0" encoding="UTF-8"?>
<svg id="Layer_1" data-name="Layer 1" xmlns="http://www.w3.org/2000/svg" viewBox="0 0 500 500">
  <defs>
    <style>
      .cls-1 {
        fill: #a55a32;
      }

      .cls-2 {
        fill: #854318;
      }

      .cls-3 {
        fill: #c27146;
      }

      .cls-4 {
        fill: #693308;
      }
    </style>
  </defs>
  <polygon class="cls-1" points="423.31 290.13 408.06 307.61 377.57 312.36 361.92 319.7 346.1 327.13 290.53 321.54 277.49 327.22 217.74 326.48 186.27 317.11 153.32 323.5 123.32 317.11 82.5 311.23 59.88 290.13 74.63 273.93 93.31 267.7 116.43 245.06 130.69 245.06 139.05 236.57 156.51 210.27 176.43 202.61 194.5 191.09 211.1 165.64 242.03 153.47 275.04 156.48 299.87 160.23 310.93 178.18 327.53 188.38 331.1 199.5 360.97 218.75 371.18 236.67 381.14 240.62 397.73 274.49 423.31 290.13"/>
  <polygon class="cls-2" points="423.31 290.13 408.06 307.61 389.21 310.55 377.57 312.36 346.1 327.13 290.53 321.54 287.08 307.27 284.5 287.93 318.43 260.06 309.21 248.26 282.41 239.82 263.23 234.02 258.56 224.65 269.34 188.07 258.31 190.16 264.22 168.09 275.04 156.48 299.87 160.23 310.94 178.18 327.53 188.38 331.1 199.5 360.97 218.75 371.18 236.67 381.14 240.62 397.73 274.49 423.31 290.13"/>
  <polygon class="cls-2" points="116.43 245.06 130.94 254.97 129.22 265.72 117.41 279.59 122.33 292.32 144.22 301.38 130.32 282.42 147.17 268.83 164.87 266.57 150.12 261.19 130.69 245.06 116.43 245.06 116.43 245.06"/>
  <polygon class="cls-2" points="176.43 202.61 195.12 207.14 206.18 222.14 208.89 238.27 210.85 217.04 227.82 217.61 210.61 207.99 203.23 205.72 185.4 196.89 176.43 202.61 176.43 202.61"/>
  <polygon class="cls-2" points="240.61 262.91 252.41 268.86 262.25 282.44 266.18 302.25 276.02 311.31 252.9 304.23 258.31 287.11 250.93 275.37 240.61 262.91"/>
  <polygon class="cls-4" points="295.03 164.08 303.81 186.52 312.9 207.82 325.44 220.72 331.1 245.06 364.29 262.61 337.74 243.08 340.44 221.21 320.52 206.01 324.58 189.86 306.39 179.65 295.03 164.08"/>
  <polygon class="cls-4" points="350.77 267.68 371.43 280.72 377.33 281.28 401.92 299.68 370.2 288.36 361.84 292.32 357.9 303.07 331.1 312.13 351.75 298.26 337 296.57 356.43 280.72 350.77 267.68"/>
  <polygon class="cls-2" points="173.48 227.97 184.3 235.44 189.71 248.7 197.33 251.29 179.87 253.27 182.82 242.8 173.48 227.97"/>
  <polygon class="cls-2" points="96.51 277.89 106.84 284.11 114.22 297.13 127.99 303.07 113.48 303.07 106.35 292.04 89.63 287.93 97.25 284.96 96.51 277.89"/>
  <polygon class="cls-2" points="284.5 287.93 287.08 307.27 269.87 288.36 282.9 265.72 239.38 225.82 248.97 204.74 245.58 185.07 230.53 174.31 240.36 163.28 242.03 153.47 275.04 156.48 264.22 168.09 258.31 190.16 269.34 188.07 258.56 224.65 263.23 234.02 282.41 239.82 309.21 248.26 318.43 260.06 284.5 287.93"/>
  <polygon class="cls-4" points="287.08 201.91 283.64 186.19 291.14 179.41 287.7 188.75 291.14 190.47 287.08 201.91"/>
  <polygon class="cls-1" points="295.56 226.75 301.47 217.28 312.9 214.26 303.43 219.37 299.01 232.19 295.56 226.75"/>
  <polygon class="cls-1" points="294.27 293.45 305.71 283.46 321.2 279.3 332.26 266.85 342.59 265.72 334.11 271.66 325.75 291.05 313.08 288.99 294.27 293.45"/>
  <polygon class="cls-1" points="306.63 315.02 317.08 305.8 326.24 305.92 306.63 315.02"/>
  <polygon class="cls-3" points="148.81 227.11 162.58 221.21 164.54 210.63 178.23 206.45 171.18 214.63 163.52 225.02 148.81 227.11"/>
  <polygon class="cls-3" points="223.64 178.92 219.54 175.64 211.35 179.9 206.59 189.57 201.39 189.57 210.69 194.65 213.97 187.11 229.22 185.15 229.22 180.06 223.64 178.92"/>
  <polygon class="cls-3" points="204.95 252.36 218.07 246.78 225.61 237.28 234.79 232.19 226.83 251.54 204.95 252.36"/>
  <polygon class="cls-3" points="103.81 265.72 117.58 265.72 110.69 262.03 115.45 251.37 102.66 262.19 103.81 265.72"/>
  <polygon class="cls-3" points="72.01 290.34 83.81 289.24 79.38 282.52 91.68 275.14 74.96 278.75 72.01 290.34"/>
  <polygon class="cls-3" points="145.61 293.18 151.18 296.45 158.23 284.82 165.77 277.85 153.11 283.59 145.61 293.18"/>
  <polygon class="cls-1" points="256.02 159.82 263.05 156.87 256.67 166.38 244.54 172.77 256.02 159.82"/>
  <polygon class="cls-4" points="278.23 250.47 297.08 260.72 298.56 269.08 292.26 284.57 306.26 277.28 304.95 270.97 312.49 262.04 324.95 253.27 301.65 256.3 278.23 250.47"/>
  <polygon class="cls-2" points="319.05 201.91 320.89 192.07 309.95 183.96 314.38 191.74 318.15 193.79 319.05 201.91"/>
  <polygon class="cls-2" points="331.65 238.98 328.89 226.21 333.97 219.24 331.59 227.6 331.65 238.98"/>
  <path class="cls-2" d="M346.43,293.45s5.49,1.12,5.57.71,9.59-13.32,9.59-13.32l-9.79,7.25-.86,3.52-4.51,1.83Z"/>
  <polygon class="cls-4" points="264.22 168.09 267.41 183.96 276.51 183.96 273.13 211.62 289.79 214.26 286.1 224.41 309.21 248.26 263.23 234.02 258.56 224.65 269.34 188.07 258.31 190.16 264.22 168.09"/>
  <polygon class="cls-4" points="351.79 242.27 360.15 237.83 357.57 230.14 372.74 245.39 351.79 242.27"/>
  <polygon class="cls-4" points="376.92 260.55 372.41 269.78 382 269.78 399.21 284.57 385.81 262.61 379.79 263.74 376.92 260.55"/>
  <polygon class="cls-2" points="252.99 247.11 270.39 258.75 273.16 269.57 266.26 259.73 241.59 251.46 252.99 247.11"/>
  <polygon class="cls-2" points="180.61 306.42 186.27 317.11 217.74 326.48 192.17 283.24 175.45 275.14 181.51 285.86 167.44 305.73 180.61 306.42"/>
  <polygon class="cls-2" points="217.37 267.07 223.01 277.11 233.83 281.96 243.64 313.34 229.22 294.25 214.15 286.33 212.68 274.37 189.81 261.54 217.37 267.07"/>
  <polygon class="cls-3" points="171.84 270.55 177.58 264.49 184.26 262.67 196.43 271.86 171.84 270.55"/>
  <path class="cls-3" d="M145.61,241.54s16.88.82,17.38.49c.49-.33,7.38-11.96,7.38-11.96l-11.8,8.2-12.95,3.27Z"/>
  <polygon class="cls-1" points="201.39 329.67 184.13 346.52 123.32 346.52 110.12 337.3 140.65 327.22 150.85 307.16 154.74 307.79 176.43 311.31 201.39 329.67"/>
  <polygon class="cls-3" points="159.71 312.68 151.59 315.39 150.12 324.49 131.38 338.55 110.12 337.3 140.65 327.22 150.85 307.16 159.71 312.68"/>
  <polygon class="cls-2" points="201.39 329.67 184.13 346.52 167.44 340.22 174.95 334.32 174.95 326.48 163.52 326.84 159.71 312.68 150.85 307.16 154.74 307.79 176.43 311.31 201.39 329.67"/>
  <polygon class="cls-1" points="288.2 336.03 277.97 340.22 249.43 338.27 242.03 337.76 249.72 322.86 261.63 318.92 276.76 318.92 288.2 336.03"/>
  <polygon class="cls-2" points="288.2 336.03 277.97 340.22 269.73 325.31 257.1 321.5 261.63 318.92 276.76 318.92 288.2 336.03"/>
  <polygon class="cls-3" points="249.72 322.86 261.63 318.92 253.66 325.8 253.99 333.01 247.06 338.11 242.03 337.76 249.72 322.86"/>
  <polygon class="cls-2" points="274.13 320.06 269.64 318.92 272.64 318.92 274.13 320.06"/>
  <polygon class="cls-2" points="410.03 316.53 399.21 333.83 368.72 333.83 361.77 328.92 359.37 327.22 369.21 303.07 391.34 303.07 410.03 316.53"/>
  <polygon class="cls-1" points="376.43 320.72 361.77 328.92 359.37 327.22 369.21 303.07 375.66 303.07 368.56 318.92 376.43 320.72"/>
  <polygon class="cls-4" points="391.34 303.07 403.92 312.13 410.03 316.53 407.61 320.4 400.69 318.92 389.5 322.4 383.6 330.14 388.51 312.13 374.43 305.8 375.66 303.07 391.34 303.07"/>
  <polygon class="cls-4" points="315.11 340.22 328.89 340.22 335.77 345.98 322 348.95 302.08 344.5 315.11 340.22"/>
  <polygon class="cls-2" points="414.21 276.29 425.28 273.59 436.34 273.46 431.62 279.59 414.21 276.29"/>
  <polygon class="cls-4" points="426.01 310.41 459.58 309.24 454.2 313.34 436.78 316.61 426.01 310.41"/>
  <polygon class="cls-1" points="76.6 319.96 87.91 320.54 95.04 328.99 59.88 327.7 76.6 319.96"/>
  <polygon class="cls-2" points="48.81 277.85 55.94 277.85 54.83 282.74 40.42 282.48 48.81 277.85"/>
  <polygon class="cls-1" points="165.77 357.44 197.33 357.44 195.29 363.83 165.77 357.44"/>
  <polygon class="cls-2" points="219.87 338.11 209.63 342.19 235.69 342.19 219.87 338.11"/>
  <polygon class="cls-2" points="301.59 366.53 300.61 360.63 316.44 360.63 301.59 366.53"/>
  <polygon class="cls-2" points="362.27 342.19 387.23 341.17 385.81 347.85 362.27 342.19"/>
</svg>