<?xml version="1.0" encoding="UTF-8"?>
<svg id="Layer_1" data-name="Layer 1" xmlns="http://www.w3.org/2000/svg" viewBox="0 0 500 500">
  <defs>
    <style>
      .cls-1 {
        fill: #dfdfdf;
      }

      .cls-2 {
        fill: #ef4b4b;
      }

      .cls-3 {
        fill: #efeceb;
      }

      .cls-4 {
        fill: #f4efef;
      }

      .cls-5 {
        fill: #fff;
      }

      .cls-6 {
        fill: #f7dcac;
      }

      .cls-7 {
        fill: #f7f7f7;
      }

      .cls-8 {
        fill: #f6a0a1;
      }

      .cls-9 {
        fill: #3e3e3f;
      }
    </style>
  </defs>
  <path class="cls-2" d="M335.98,141.95c-36.22-7.01-193.33-3.12-203.01-.26-13.54,4-18.65,13.53-22.08,30.17-4.58,22.25-39.35,147.03-38.54,182.13.37,15.94,7.33,20.42,31.32,23.22,15.38,1.79,179.38,5.36,204.68,4.31,29.06-1.21,31.76-9.18,32.74-15.34,3.01-18.97,3.82-159.06,4.37-181.96.27-11.4,5.94-39.29-9.48-42.27Z"/>
  <path class="cls-5" d="M131.51,148.34c1.62-2.04,3.58-3.81,6-5.16,10.05-5.58,22.34-3.18,33.08-1.61,20.24,2.96,41.58,2.37,62,3.77,36.65,2.52,73.38,5.18,109.88,9.42,5.26.61,11.85.52,16.83,2.56,12.77,5.23,9.38,22.47,9.22,30.76-.44,22.62-5.77,138.3-10.13,173.09-1.98,15.8-6.44,21.34-30.07,21.89-15.15.36-180.34,2.21-204.93-1.18-8.52-1.18-18.46-2.12-25.32-7.86-8.45-7.08-7.86-20.16-6.92-30.12,2.99-31.76,7.06-48.34,10.74-72.46,3.23-21.12,8.33-41.75,12.43-62.7,2.66-13.59,5.78-27.12,9.21-40.51,1.76-6.86,3.62-14.39,7.98-19.9Z"/>
  <path class="cls-4" d="M139.22,148.47c1.46-2.22,3.27-4.16,5.58-5.71,9.54-6.4,21.85-4.66,32.56-3.68,20.19,1.83,41.23-.08,61.5.13,36.37.38,72.83.9,109.17,3.06,5.23.31,11.74-.18,16.8,1.62,12.97,4.64,10.8,22.72,11.21,31.31.41,8.6.49,17.22.62,25.82.53,35.15.63,70.31.42,105.46-.09,15.34-.21,30.69-.68,46.02-.22,7.26,1.21,13.13-4.82,18.13-6.8,5.65-16.91,7.29-25.05,10.18-18.15,6.44-36.75,7.41-55.8,7.04-16.67-.33-33.82,2.78-50.7,3.07-30.7.52-62.2,2.59-92.86.07-8.5-.7-18.38-1.07-25.54-6.6-8.83-6.82-9.14-20.41-8.9-30.79.78-33.1,3.67-50.53,5.66-75.75,1.74-22.08,5.37-43.77,7.99-65.73,1.7-14.24,3.85-28.46,6.32-42.54,1.27-7.22,2.59-15.14,6.52-21.11Z"/>
  <path class="cls-7" d="M395.03,120.24c-37.49-3.18-238.27,17.92-247.69,22.17-13.18,5.94-9.28,24.62-8.95,33.62.92,24.57,11.61,158.66,16.87,196.38,2.39,17.13,10.19,29.19,34.78,29.31,15.77.08,181.03-22.34,206.47-26.52,29.21-4.8,30.94-13.71,31.14-20.47.64-20.81-15.36-165.34-17.69-190.09-1.16-12.32,1.03-43.05-14.93-44.4Z"/>
  <path class="cls-1" d="M263.61,209.58c-.39-.96-.36-3-5.18-2.42-1.92.23-8.14.95-10.58,1.28-3.65.49-5.65,1-5.28,4.99.36,3.9,1.52,12.86,1.73,14.9.2,1.93.59,2.96,2.75,2.97,1.53,0,14.93-1.62,16.29-2.02,2.17-.64,2.51-1.92,2.19-3.93-.75-4.78-1.63-15.08-1.91-15.76Z"/>
  <path class="cls-1" d="M295.33,205.57c-.39-.96-.36-3.01-5.18-2.42-1.92.23-8.14.95-10.58,1.28-3.65.49-5.65,1-5.29,4.99.36,3.9,1.52,12.86,1.73,14.9.2,1.93.58,2.96,2.75,2.97,1.53,0,14.93-1.62,16.29-2.02,2.17-.64,2.51-1.92,2.19-3.93-.75-4.78-1.63-15.08-1.91-15.76Z"/>
  <path class="cls-1" d="M326.64,202.07c-.39-.96-.36-3-5.18-2.42-1.92.23-8.14.95-10.58,1.28-3.65.49-5.65,1-5.28,4.99.36,3.9,1.52,12.86,1.73,14.9.2,1.93.58,2.96,2.75,2.97,1.53,0,14.94-1.62,16.29-2.02,2.17-.64,2.51-1.92,2.19-3.93-.75-4.78-1.63-15.08-1.91-15.76Z"/>
  <path class="cls-8" d="M357.2,198.26c-.39-.96-.36-3.01-5.18-2.42-1.92.23-8.14.95-10.58,1.28-3.65.49-5.65,1-5.28,4.98.36,3.9,1.52,12.86,1.73,14.9.2,1.93.58,2.96,2.75,2.97,1.53,0,14.94-1.62,16.29-2.02,2.17-.64,2.51-1.92,2.19-3.93-.75-4.78-1.63-15.08-1.91-15.76Z"/>
  <path class="cls-8" d="M387.56,194.99c-.39-.96-.36-3-5.18-2.42-1.92.23-8.14.95-10.58,1.28-3.65.49-5.65,1-5.28,4.99.36,3.9,1.52,12.86,1.73,14.9.2,1.93.59,2.96,2.75,2.97,1.53,0,14.93-1.62,16.29-2.02,2.17-.64,2.51-1.92,2.19-3.93-.75-4.78-1.63-15.08-1.91-15.76Z"/>
  <path class="cls-1" d="M329.76,235.07c-.39-.96-.36-3-5.18-2.42-1.92.23-8.14.95-10.58,1.28-3.65.49-5.65,1-5.28,4.99.36,3.9,1.52,12.86,1.73,14.9.2,1.93.59,2.96,2.75,2.97,1.53,0,14.93-1.62,16.29-2.02,2.17-.64,2.51-1.92,2.19-3.93-.75-4.78-1.63-15.08-1.91-15.76Z"/>
  <path class="cls-8" d="M361.03,231.35c-.39-.96-.36-3.01-5.18-2.42-1.92.23-8.14.95-10.58,1.28-3.65.49-5.65,1-5.28,4.99.36,3.9,1.52,12.86,1.73,14.9.2,1.93.58,2.96,2.75,2.97,1.53,0,14.93-1.62,16.29-2.02,2.17-.64,2.51-1.92,2.19-3.93-.75-4.78-1.63-15.08-1.91-15.76Z"/>
  <path class="cls-8" d="M392.12,227.71c-.39-.96-.36-3.01-5.18-2.42-1.92.23-8.14.95-10.59,1.28-3.65.49-5.65,1-5.28,4.99.36,3.9,1.52,12.86,1.73,14.9.2,1.93.58,2.96,2.75,2.97,1.53,0,14.93-1.62,16.29-2.02,2.17-.64,2.51-1.92,2.19-3.93-.75-4.78-1.63-15.08-1.91-15.76Z"/>
  <path class="cls-1" d="M236.19,246.6c-.39-.96-.36-3.01-5.18-2.42-1.92.23-8.14.95-10.58,1.28-3.65.49-5.65,1-5.28,4.98.36,3.9,1.52,12.86,1.73,14.9.2,1.93.58,2.96,2.75,2.97,1.53,0,14.93-1.62,16.29-2.02,2.17-.64,2.51-1.92,2.19-3.93-.75-4.78-1.63-15.08-1.91-15.76Z"/>
  <path class="cls-1" d="M266.7,242.82c-.39-.96-.36-3.01-5.18-2.42-1.92.23-8.14.95-10.58,1.28-3.65.49-5.65,1-5.28,4.99.36,3.9,1.52,12.86,1.73,14.9.2,1.93.59,2.96,2.75,2.97,1.53,0,14.93-1.62,16.29-2.02,2.17-.64,2.51-1.92,2.19-3.93-.75-4.78-1.63-15.08-1.91-15.76Z"/>
  <path class="cls-1" d="M298.31,238.82c-.39-.96-.36-3-5.18-2.42-1.92.23-8.14.95-10.58,1.28-3.65.49-5.65,1-5.28,4.99.36,3.9,1.52,12.86,1.73,14.9.2,1.93.59,2.96,2.75,2.97,1.53,0,14.93-1.62,16.29-2.02,2.17-.64,2.51-1.92,2.2-3.93-.75-4.78-1.63-15.08-1.91-15.76Z"/>
  <path class="cls-1" d="M333.72,267.19c-.39-.96-.36-3.01-5.18-2.42-1.92.23-8.14.95-10.58,1.28-3.65.49-5.65,1-5.28,4.99.36,3.9,1.52,12.86,1.73,14.9.2,1.93.58,2.96,2.75,2.97,1.53,0,14.93-1.62,16.29-2.02,2.17-.64,2.51-1.92,2.2-3.93-.75-4.78-1.63-15.08-1.91-15.76Z"/>
  <path class="cls-8" d="M365.28,263.43c-.39-.96-.36-3.01-5.18-2.42-1.92.23-8.14.95-10.58,1.28-3.65.49-5.65,1-5.28,4.99.36,3.9,1.52,12.86,1.73,14.9.2,1.93.58,2.96,2.75,2.97,1.53,0,14.93-1.62,16.29-2.02,2.17-.64,2.51-1.92,2.19-3.93-.75-4.78-1.63-15.08-1.91-15.76Z"/>
  <path class="cls-8" d="M395.46,259.61c-.39-.96-.36-3-5.18-2.42-1.92.23-8.14.95-10.59,1.28-3.65.49-5.65,1-5.28,4.99.36,3.9,1.52,12.86,1.73,14.9.2,1.93.59,2.96,2.75,2.97,1.53,0,14.93-1.62,16.29-2.02,2.17-.64,2.51-1.92,2.19-3.93-.75-4.78-1.63-15.08-1.91-15.76Z"/>
  <path class="cls-1" d="M239.84,278.61c-.39-.96-.36-3-5.18-2.42-1.92.23-8.14.95-10.58,1.28-3.65.49-5.65,1-5.28,4.99.36,3.9,1.52,12.86,1.73,14.9.2,1.93.58,2.96,2.75,2.97,1.53,0,14.93-1.62,16.29-2.02,2.17-.64,2.51-1.92,2.19-3.93-.75-4.78-1.63-15.08-1.91-15.76Z"/>
  <path class="cls-1" d="M271.2,275.16c-.39-.96-.36-3-5.18-2.42-1.92.23-8.14.95-10.58,1.28-3.65.49-5.65,1-5.28,4.99.36,3.9,1.52,12.86,1.73,14.9.2,1.93.59,2.96,2.75,2.97,1.53,0,14.93-1.62,16.29-2.02,2.17-.64,2.51-1.92,2.19-3.93-.75-4.78-1.63-15.08-1.91-15.76Z"/>
  <path class="cls-1" d="M302.26,270.94c-.39-.96-.37-3.01-5.18-2.42-1.92.23-8.14.95-10.58,1.28-3.65.49-5.65,1-5.28,4.99.36,3.9,1.52,12.86,1.73,14.9.2,1.93.58,2.96,2.75,2.97,1.53,0,14.94-1.62,16.29-2.02,2.17-.64,2.51-1.92,2.19-3.93-.75-4.78-1.63-15.08-1.91-15.76Z"/>
  <path class="cls-1" d="M279.45,342.58c-.39-.96-.36-3-5.18-2.42-1.92.23-8.14.95-10.58,1.28-3.65.49-5.65,1-5.28,4.99.36,3.9,1.52,12.86,1.73,14.9.2,1.93.58,2.96,2.75,2.97,1.53,0,14.93-1.62,16.29-2.02,2.17-.64,2.51-1.92,2.19-3.93-.75-4.78-1.63-15.08-1.91-15.76Z"/>
  <path class="cls-1" d="M311.55,338.46c-.39-.96-.36-3.01-5.18-2.42-1.92.23-8.14.95-10.58,1.28-3.65.49-5.65,1-5.28,4.99.36,3.9,1.52,12.86,1.73,14.9.2,1.93.59,2.96,2.75,2.97,1.53,0,14.93-1.62,16.29-2.02,2.17-.64,2.51-1.92,2.19-3.93-.75-4.78-1.63-15.08-1.91-15.76Z"/>
  <path class="cls-1" d="M341.45,334.67c-.39-.96-.36-3-5.18-2.42-1.92.23-8.14.95-10.58,1.28-3.65.49-5.65,1-5.28,4.99.36,3.9,1.52,12.86,1.73,14.89.2,1.93.59,2.96,2.75,2.97,1.53,0,14.93-1.62,16.29-2.02,2.17-.64,2.51-1.92,2.19-3.93-.75-4.78-1.63-15.08-1.91-15.76Z"/>
  <path class="cls-1" d="M247.71,346.37c-.39-.96-.36-3-5.18-2.42-1.92.23-8.14.95-10.59,1.28-3.65.49-5.65,1-5.28,4.99.36,3.9,1.52,12.86,1.73,14.9.2,1.93.58,2.96,2.75,2.97,1.53,0,14.93-1.62,16.29-2.02,2.17-.64,2.51-1.92,2.19-3.93-.75-4.78-1.63-15.08-1.91-15.76Z"/>
  <path class="cls-1" d="M204.35,250.42c-.39-.96-.36-3-5.18-2.42-1.92.23-8.14.95-10.59,1.28-3.65.49-5.65,1-5.28,4.99.36,3.9,1.52,12.86,1.73,14.9.2,1.93.59,2.96,2.75,2.97,1.53,0,14.93-1.62,16.29-2.02,2.17-.64,2.51-1.92,2.19-3.93-.75-4.78-1.63-15.08-1.91-15.76Z"/>
  <path class="cls-1" d="M208.38,283.11c-.39-.96-.36-3.01-5.18-2.42-1.92.23-8.14.95-10.58,1.28-3.65.49-5.65,1-5.28,4.99.36,3.9,1.52,12.86,1.73,14.9.2,1.93.58,2.96,2.75,2.97,1.53,0,14.93-1.62,16.29-2.02,2.17-.64,2.51-1.92,2.19-3.93-.75-4.78-1.63-15.08-1.91-15.76Z"/>
  <path class="cls-1" d="M216.68,349.69c-.39-.96-.36-3.01-5.18-2.42-1.92.23-8.14.95-10.58,1.28-3.65.49-5.65,1-5.28,4.99.36,3.9,1.52,12.86,1.73,14.9.2,1.93.58,2.96,2.75,2.97,1.53,0,14.93-1.62,16.29-2.02,2.17-.64,2.51-1.92,2.19-3.93-.75-4.78-1.63-15.08-1.91-15.76Z"/>
  <path class="cls-1" d="M338.11,301.57c-.39-.96-.37-3-5.18-2.42-1.92.23-8.14.95-10.59,1.28-3.65.49-5.65,1-5.28,4.99.36,3.9,1.52,12.86,1.73,14.9.2,1.93.58,2.96,2.75,2.97,1.53,0,14.93-1.62,16.29-2.02,2.17-.64,2.51-1.92,2.19-3.93-.75-4.78-1.63-15.08-1.91-15.76Z"/>
  <path class="cls-8" d="M369.67,297.81c-.39-.96-.36-3-5.18-2.42-1.92.23-8.14.95-10.58,1.28-3.65.49-5.65,1-5.28,4.98.36,3.9,1.52,12.86,1.73,14.9.2,1.93.58,2.96,2.75,2.97,1.53,0,14.93-1.62,16.29-2.02,2.17-.64,2.51-1.92,2.19-3.93-.75-4.78-1.63-15.08-1.91-15.76Z"/>
  <path class="cls-8" d="M399.82,293.7c-.39-.96-.36-3-5.18-2.42-1.92.23-8.14.95-10.59,1.28-3.65.49-5.65,1-5.28,4.99.36,3.9,1.52,12.86,1.73,14.9.2,1.93.58,2.96,2.75,2.97,1.53,0,14.93-1.62,16.29-2.02,2.17-.64,2.51-1.92,2.19-3.93-.75-4.78-1.63-15.08-1.91-15.76Z"/>
  <path class="cls-1" d="M243.62,312.77c-.39-.96-.36-3.01-5.18-2.42-1.92.23-8.14.95-10.58,1.28-3.65.49-5.65,1-5.28,4.99.36,3.9,1.52,12.86,1.73,14.9.2,1.93.59,2.96,2.75,2.97,1.53,0,14.93-1.62,16.29-2.02,2.17-.64,2.51-1.92,2.19-3.93-.75-4.78-1.63-15.08-1.91-15.76Z"/>
  <path class="cls-1" d="M275.6,309.54c-.39-.96-.36-3-5.18-2.42-1.92.23-8.14.95-10.59,1.28-3.65.49-5.65,1-5.28,4.99.36,3.9,1.52,12.86,1.73,14.9.2,1.93.58,2.96,2.75,2.97,1.53,0,14.93-1.62,16.29-2.02,2.17-.64,2.51-1.92,2.19-3.93-.75-4.78-1.63-15.08-1.91-15.76Z"/>
  <path class="cls-1" d="M306.66,305.32c-.39-.96-.36-3.01-5.18-2.42-1.92.23-8.14.95-10.59,1.28-3.65.49-5.65,1-5.28,4.99.36,3.9,1.52,12.86,1.73,14.9.2,1.93.59,2.96,2.75,2.97,1.53,0,14.93-1.62,16.29-2.02,2.17-.64,2.51-1.92,2.19-3.93-.75-4.78-1.63-15.08-1.91-15.76Z"/>
  <path class="cls-1" d="M212.63,316.34c-.39-.96-.36-3-5.18-2.42-1.92.23-8.14.95-10.58,1.28-3.65.49-5.65,1-5.28,4.99.36,3.9,1.52,12.86,1.73,14.9.2,1.93.59,2.96,2.75,2.97,1.53,0,14.93-1.62,16.29-2.02,2.17-.64,2.51-1.92,2.19-3.93-.75-4.78-1.63-15.08-1.91-15.76Z"/>
  <path class="cls-2" d="M395.03,120.24c-37.76-4.15-237.55,15.34-246.94,20.16-13.14,6.75-8.88,28.52-8.37,38.99.19,3.82.5,12.05,1.06,19.85,19.61-1.88,260.36-27.6,271.5-29.04-.12-1.18-.22-2.23-.31-3.14-1.4-14.34-.86-45.06-16.94-46.82Z"/>
  <path class="cls-2" d="M339.35,268.3c-1.34-1.38-3.03-2.27-4.9-2.42-2.06-.17-3.97.97-5.46,2.37l-.22.21c-1.07,1.06.53,2.76,1.6,1.7,1.39-1.37,3.07-2.25,4.97-1.69,1.72.5,3.06,2.07,3.99,3.61,2.11,3.47,3.02,8.56.9,12.24-2.32,4.02-6.95,6.08-11.14,6.85-4.34.8-9.36.07-12.81-3.03-2.31-2.08-3.62-4.99-3.63-8.19-.02-3.3,1.32-6.48,2.99-9.19,3.33-5.41,9.33-10.46,15.63-10.72,1.46-.06,1.46-2.47,0-2.41-8.67.35-16.68,8.14-19.77,16.39-1.53,4.09-1.55,8.75.6,12.59,2.35,4.19,6.73,6.47,11.16,7.06,8.18,1.08,19.7-3.25,20.41-13.33.3-4.31-1.4-9.05-4.32-12.05Z"/>
  <path class="cls-6" d="M390.96,181.24s0,.02,0,.02c0-.01,0-.02,0-.02Z"/>
  <path class="cls-3" d="M419.95,247.2c-1.62,0-1.62,2.52,0,2.52s1.62-2.52,0-2.52Z"/>
  <path class="cls-5" d="M162.81,147.32c-2.52.27-4.41,2.59-4.14,5.12.27,2.52,2.59,4.41,5.12,4.14,2.52-.27,4.41-2.59,4.14-5.12-.27-2.52-2.59-4.41-5.12-4.14Z"/>
  <path class="cls-5" d="M181.32,145.37c-2.52.27-4.41,2.59-4.14,5.12.27,2.52,2.59,4.41,5.12,4.14,2.52-.27,4.41-2.59,4.14-5.12-.27-2.52-2.59-4.41-5.12-4.14Z"/>
  <path class="cls-5" d="M216.82,141.32c-2.52.27-4.41,2.59-4.14,5.12.27,2.52,2.59,4.41,5.12,4.14,2.52-.27,4.41-2.59,4.14-5.12-.27-2.52-2.59-4.41-5.12-4.14Z"/>
  <path class="cls-5" d="M235.34,139.37c-2.52.27-4.41,2.59-4.14,5.12.27,2.52,2.59,4.41,5.12,4.14,2.52-.27,4.41-2.59,4.14-5.12-.27-2.52-2.59-4.41-5.12-4.14Z"/>
  <path class="cls-5" d="M267.35,136.6c-2.52.27-4.41,2.59-4.14,5.12.27,2.52,2.59,4.41,5.12,4.14,2.52-.27,4.41-2.59,4.14-5.12-.27-2.52-2.59-4.41-5.12-4.14Z"/>
  <path class="cls-5" d="M285.86,134.65c-2.52.27-4.41,2.59-4.14,5.12.27,2.52,2.59,4.41,5.12,4.14,2.52-.27,4.41-2.59,4.14-5.12-.27-2.52-2.59-4.41-5.12-4.14Z"/>
  <path class="cls-5" d="M319.07,131.75c-2.52.27-4.41,2.59-4.14,5.12.27,2.52,2.59,4.41,5.12,4.14,2.52-.27,4.41-2.59,4.14-5.12-.27-2.52-2.59-4.41-5.12-4.14Z"/>
  <path class="cls-5" d="M337.58,129.8c-2.52.27-4.41,2.59-4.14,5.12.27,2.52,2.59,4.41,5.12,4.14,2.52-.27,4.41-2.59,4.14-5.12-.27-2.52-2.59-4.41-5.12-4.14Z"/>
  <path class="cls-5" d="M370.53,127.24c-2.5.43-4.23,2.87-3.8,5.37.43,2.5,2.87,4.23,5.37,3.8,2.5-.43,4.23-2.87,3.8-5.37-.43-2.5-2.87-4.23-5.37-3.8Z"/>
  <path class="cls-5" d="M389.3,124.96c-2.5.43-4.23,2.87-3.8,5.37.43,2.5,2.87,4.23,5.37,3.8,2.5-.43,4.23-2.87,3.8-5.37-.43-2.5-2.87-4.23-5.37-3.8Z"/>
  <path class="cls-9" d="M165.28,154.83l-3.02-4.48c3.78-2.55,5.45-7.58,4.46-13.44-.94-5.55-4.08-10.09-7.64-11.03-3.26-.86-6.81-.07-9.76,2.18-3.79,2.89-5.99,7.7-6.03,13.18l-5.41-.04c.05-7.16,3.02-13.52,8.15-17.43,4.28-3.27,9.54-4.41,14.43-3.11,5.63,1.49,10.29,7.66,11.59,15.36,1.33,7.9-1.26,15.11-6.77,18.83Z"/>
  <path class="cls-9" d="M164.5,133.23c-.32-.37-.65-.72-1.02-1.04-.08-.05-.56-.41-.62-.44-.22-.14-.43-.27-.66-.39-.11-.06-.87-.4-.64-.32-.1-.04-.21-.08-.31-.11-.3-.11-.59-.24-.86-.39-.48,1.05-.88,2.14-1.21,3.28l4.97,1.43c.16-.56.35-1.1.55-1.62-.17-.25-.46-.66-.21-.39Z"/>
  <path class="cls-9" d="M186.25,119.5c-4.24-2.46-9.46-2.76-14.31-.81-1.97.79-3.78,1.93-5.38,3.33,1.74.79,3.39,1.65,4.87,2.76.77-.51,1.58-.95,2.44-1.29,3.36-1.35,6.92-1.18,9.78.48,3.09,1.79,4.85,6.76,4.28,12.09-.59,5.56-3.41,9.67-7.54,11.02l1.6,4.91c6.04-1.96,10.28-7.86,11.08-15.39.79-7.41-1.96-14.28-6.83-17.11Z"/>
  <path class="cls-9" d="M217.71,148.46l-2.02-5.02c4.23-1.7,6.92-6.27,7.17-12.21.25-5.63-1.88-10.72-5.16-12.38-3-1.52-6.65-1.49-10,.09-4.31,2.04-7.46,6.27-8.65,11.62l-5.28-1.17c1.55-6.99,5.78-12.59,11.62-15.34,4.87-2.3,10.25-2.31,14.76-.03,5.19,2.64,8.46,9.65,8.12,17.44-.35,8-4.39,14.52-10.56,17Z"/>
  <g>
    <path class="cls-9" d="M220.13,125.3c-.17-.17-1.23-1-.82-.72-.32-.23-.65-.46-.99-.67-.66-.42-1.34-.8-2.03-1.17-.47,1.07-.88,2.19-1.21,3.36l5.12,1.46c.17-.6.37-1.17.58-1.74-.23-.15-.45-.33-.66-.52Z"/>
    <path class="cls-9" d="M241.64,112.14c-4.08-2.46-9.16-2.8-13.92-.92-1.4.55-2.71,1.27-3.94,2.13,1.34,1.24,2.67,2.48,3.92,3.8.63-.38,1.29-.71,1.97-.98,3.21-1.26,6.56-1.07,9.22.53,2.99,1.8,4.69,6.95,4.13,12.52-.47,4.7-2.77,10.37-7.81,12.15l1.78,5.02c6.17-2.19,10.51-8.56,11.32-16.63.79-7.78-1.83-14.69-6.68-17.61Z"/>
  </g>
  <path class="cls-9" d="M269.81,143.16l-2.02-5.02c4.23-1.7,6.92-6.27,7.17-12.21.25-5.63-1.88-10.72-5.16-12.38-3-1.52-6.65-1.49-10,.09-4.31,2.04-7.46,6.27-8.65,11.62l-5.28-1.17c1.55-6.99,5.78-12.59,11.62-15.34,4.87-2.3,10.25-2.31,14.76-.03,5.19,2.64,8.46,9.65,8.12,17.44-.35,8-4.39,14.52-10.56,16.99Z"/>
  <g>
    <path class="cls-9" d="M273.04,118.12c-.05-.1-.64-1-.28-.63-.09-.1-.18-.21-.28-.3.15.22-1.44-.78-.66-.49-.68-.25-1.36-.47-2.07-.63-.21-.05-.43-.09-.64-.13-.79,1.51-1.43,3.14-1.93,4.87l5.12,1.46c.34-1.18.77-2.29,1.27-3.34-.21-.24-.4-.5-.54-.8Z"/>
    <path class="cls-9" d="M293.74,106.84c-4.08-2.46-9.16-2.8-13.92-.92-.89.35-1.75.77-2.58,1.25,1.66.98,2.97,2.33,4,3.93.18-.08.35-.16.53-.23,3.21-1.26,6.56-1.07,9.22.53,2.99,1.8,4.69,6.95,4.13,12.52-.47,4.7-2.78,10.37-7.81,12.15l1.78,5.02c6.17-2.19,10.51-8.56,11.32-16.63.79-7.78-1.84-14.69-6.68-17.61Z"/>
  </g>
  <path class="cls-9" d="M324.37,106.63c-4.4-2.07-9.65-2.06-14.41.02-4.2,1.84-7.55,5.09-9.63,9.21.73,1.73,1.28,3.52,1.49,5.35l1.95.4c1.16-4.85,4.24-8.69,8.45-10.53,3.27-1.44,6.83-1.47,9.76-.08,3.21,1.51,5.28,6.12,5.04,11.22-.25,5.39-2.87,9.53-7.01,11.07l1.97,4.55c6.02-2.25,9.97-8.15,10.31-15.4.33-7.07-2.85-13.42-7.93-15.81Z"/>
  <g>
    <path class="cls-9" d="M325.11,116.5c-.32-.3-.63-.6-.98-.87.05.04-1.11-.8-.57-.44-.37-.25-.75-.49-1.13-.72-.48-.28-.98-.55-1.47-.8-.61,1.18-1.12,2.44-1.53,3.76l5,1.32c.23-.74.5-1.44.8-2.12-.07-.08-.12-.13-.12-.13Z"/>
    <path class="cls-9" d="M345.35,104.77c-3.99-2.23-8.94-2.54-13.59-.83-1.45.53-2.82,1.24-4.09,2.09,1.5.92,2.88,2.03,4.09,3.28.61-.34,1.25-.64,1.91-.88,3.13-1.15,6.41-.97,9,.48,2.92,1.63,4.58,6.3,4.03,11.35-.46,4.26-2.71,9.4-7.62,11.02l1.74,4.55c6.02-1.98,10.26-7.76,11.06-15.08.77-7.06-1.79-13.32-6.52-15.97Z"/>
  </g>
  <path class="cls-9" d="M373.53,100.42c-4.4-2.22-9.65-2.21-14.41.03-2.84,1.34-5.29,3.36-7.22,5.89,1.3,1.4,2.4,2.96,3.22,4.64,1.55-2.56,3.69-4.57,6.26-5.78,3.27-1.54,6.83-1.57,9.76-.09,3.21,1.62,5.28,6.57,5.04,12.04-.25,5.78-2.87,10.22-7.01,11.87l1.97,4.88c6.02-2.41,9.97-8.74,10.31-16.52.33-7.58-2.85-14.39-7.93-16.96Z"/>
  <g>
    <path class="cls-9" d="M393.5,100.26c-3.94-2.3-8.84-2.62-13.43-.86-1.3.5-2.54,1.14-3.69,1.92,1.41,1,2.62,2.29,3.5,3.74.66-.4,1.35-.74,2.08-1.02,3.09-1.18,6.33-1,8.89.49,2.89,1.69,4.52,6.5,3.98,11.71-.46,4.4-2.68,9.7-7.53,11.37l1.72,4.69c5.95-2.05,10.14-8.01,10.92-15.56.76-7.28-1.77-13.75-6.44-16.48Z"/>
    <path class="cls-9" d="M373.2,111.02s-.01-.07-.02-.1c-.17-.23-.36-.45-.6-.67-.12-.11-1.27-1.04-.6-.57-.31-.22-.62-.43-.95-.63-.37-.22-.74-.43-1.12-.63-.84,1.51-1.53,3.15-2.04,4.9l4.94,1.36c.25-.85.55-1.66.9-2.43-.26-.37-.45-.78-.52-1.24Z"/>
  </g>
  <path class="cls-8" d="M163.64,186.35c-2.85.57-5.69,1.11-8.61,1.15-1.93.02-1.94,3.03,0,3,3.18-.04,6.3-.63,9.41-1.25,1.9-.38,1.09-3.27-.8-2.9Z"/>
  <path class="cls-8" d="M205.47,182.69c-5.46.04-10.81,1.18-16.21,1.8-1.9.22-1.92,3.22,0,3,5.4-.62,10.76-1.76,16.21-1.8,1.94-.02,1.94-3.02,0-3Z"/>
  <path class="cls-8" d="M237.39,181.03c-.44-.76-1.31-.88-2.05-.54-1.04.48-2.34.39-3.45.4-1.94,0-1.94,3,0,3,1.71,0,3.39-.09,4.96-.81.74-.34.92-1.4.54-2.05Z"/>
  <path class="cls-8" d="M291.54,174.94c-3.86.55-7.7,1.12-11.61,1.15-1.94.01-1.94,3.01,0,3,4.17-.03,8.29-.66,12.41-1.25,1.91-.27,1.09-3.17-.8-2.9Z"/>
  <path class="cls-8" d="M349.79,167.73c-4.01.57-8.02,1.14-12.01,1.8-1.91.32-1.09,3.21.8,2.89,3.99-.66,8-1.23,12.01-1.8,1.91-.27,1.09-3.17-.8-2.9Z"/>
  <path class="cls-8" d="M399.99,160.65c-2.69.36-5.38.53-8.09.26-1.93-.19-2.26,2.8-.33,2.98,2.97.29,5.94.11,8.89-.28,1.92-.25,1.44-3.22-.48-2.97Z"/>
</svg>