<?xml version="1.0" encoding="UTF-8"?>
<svg id="Layer_1" data-name="Layer 1" xmlns="http://www.w3.org/2000/svg" viewBox="0 0 500 500">
  <defs>
    <style>
      .cls-1 {
        fill: #fcc438;
      }

      .cls-1, .cls-2, .cls-3, .cls-4 {
        fill-rule: evenodd;
      }

      .cls-2 {
        fill: #eb7d24;
      }

      .cls-3 {
        fill: #e0dbcc;
      }
    </style>
  </defs>
  <path class="cls-3" d="M158.54,281.99c-8.33,1.44-15.87,5.58-24.7,5.72-35.68.58-68.89-26.34-79.44-65.05-5.61-20.6,0-26.26,20.79-21.39,33.98,7.95,64.8,23.18,94.7,40.61l-2.85,7.39-1.5,3.9c-3.51,9.32-6.09,18.86-7,28.82"/>
  <path class="cls-3" d="M341.46,281.99c8.33,1.44,15.87,5.58,24.7,5.72,35.68.58,68.89-26.34,79.44-65.05,5.61-20.6,0-26.26-20.79-21.39-33.98,7.95-64.8,23.18-94.7,40.61l2.85,7.39,1.5,3.9c3.52,9.32,6.09,18.86,7,28.82"/>
  <path class="cls-1" d="M249.64,192.75c51.99,0,94.14,42.15,94.14,94.14s-42.15,94.14-94.14,94.14-94.14-42.15-94.14-94.14,42.15-94.14,94.14-94.14"/>
  <path class="cls-4" d="M249.64,135.14c32.37,0,58.61,26.24,58.61,58.61,0,6.08-.92,11.94-2.64,17.45-15.65-11.59-35.01-18.44-55.97-18.44s-40.33,6.86-55.97,18.44c-1.72-5.51-2.64-11.37-2.64-17.45,0-32.37,26.24-58.61,58.61-58.61"/>
  <path class="cls-4" d="M239.32,136.04c-4.31.93-11.62-10.64-24.04-20.45-12.42-9.81-36.88-33.22-43.2-20.95-4.35,8.44.75,9.38,7.45,11.13,5.83,1.52,56,28.52,45.11,34.95-9.27,5.47,8.72,13.89,9.05,12.04.33-1.85,15.95-12.05,5.63-16.72"/>
  <path class="cls-4" d="M260.28,136.04c4.31.93,11.62-10.64,24.04-20.45,12.42-9.81,36.88-33.22,43.2-20.95,4.35,8.44-.75,9.38-7.45,11.13-5.83,1.52-56,28.52-45.11,34.95,9.27,5.47-8.72,13.89-9.05,12.04-.34-1.85-15.95-12.05-5.63-16.72"/>
  <path class="cls-4" d="M326.51,341.24c-17.05,24.07-45.12,39.79-76.87,39.79s-59.82-15.72-76.87-39.79c22.66-7.88,48.9-12.38,76.87-12.38s54.21,4.5,76.87,12.38"/>
  <path class="cls-4" d="M232.94,368.85c6.69,14.4,2.81,28-7.63,39.99,16.33,0,41.76-19.23,56.49-42.66-2.68-10.71-29.11-15.73-48.86,2.67"/>
  <path class="cls-4" d="M155.5,287.73c26.1-12.14,58.73-19.35,94.13-19.35s68.04,7.21,94.13,19.35c0-.28,0-.56,0-.84,0-12.23-2.33-23.91-6.57-34.63-24.2-12.35-54.57-19.7-87.56-19.7s-63.37,7.35-87.56,19.7c-4.24,10.72-6.57,22.4-6.57,34.63,0,.28,0,.56,0,.84"/>
  <path class="cls-2" d="M291.84,202.72c10.48,11.11,18.29,24.78,22.4,39.96,6.82,2.28,13.33,4.9,19.47,7.85,1.18.56,2.34,1.14,3.49,1.73-.4-1.02-.82-2.03-1.26-3.02-6.64-15.19-17.17-28.29-30.33-38.04-4.32-3.2-8.92-6.04-13.77-8.48"/>
  <path class="cls-2" d="M343.77,287.73c-8.32-3.87-17.31-7.24-26.85-10.04-2.31,21.09-11.6,40.09-25.49,54.63,12.39,2.1,24.15,5.12,35.08,8.92,10.73-15.14,17.09-33.59,17.26-53.51"/>
</svg>