<?xml version="1.0" encoding="UTF-8"?>
<svg id="Layer_1" data-name="Layer 1" xmlns="http://www.w3.org/2000/svg" viewBox="0 0 500 500">
  <defs>
    <style>
      .cls-1 {
        fill: #85ba40;
      }

      .cls-2 {
        fill: #161616;
      }

      .cls-3 {
        fill: #afd253;
      }
    </style>
  </defs>
  <g>
    <g>
      <path class="cls-1" d="M275.82,282.89s8.71-63.04,92.36-53.59c0,0-36.87,78.98-92.36,53.59Z"/>
      <path class="cls-3" d="M272.84,283.65s52.32-39.01,95.34-54.34c0,0-58.86,24.67-94.82,56.3l-.52-1.95Z"/>
    </g>
    <g>
      <path class="cls-1" d="M267.97,253.9s-65.22,20.29-94.19-65.29c0,0,93.55-.2,94.19,65.29Z"/>
      <path class="cls-3" d="M270.07,256.45s-61.76-33.04-96.28-67.84c0,0,50.81,45.93,97.94,66.44l-1.66,1.4Z"/>
    </g>
    <g>
      <path class="cls-1" d="M271.4,189.39s54.92-30.5,8.94-136.28c0,0-96.44,97.32-8.94,136.28Z"/>
      <path class="cls-3" d="M271.77,192.8s3.51-97.32,8.57-139.69c0,0-8.13,61.05-9.35,139.69h.79Z"/>
    </g>
    <g>
      <path class="cls-1" d="M278.58,361.02s9.3-50.95,104.05-42.99c0,0-50.51,101.02-104.05,42.99Z"/>
      <path class="cls-3" d="M275.82,361.62s75.06-28.46,106.81-43.6c0,0-45.52,22.48-106.6,44.21l-.21-.61Z"/>
    </g>
    <g>
      <path class="cls-1" d="M265.93,347.37s-57.67,11.69-113.94-59.45c0,0,104.73-34.09,113.94,59.45Z"/>
      <path class="cls-3" d="M268.59,349.76s-78.94-52.78-116.6-61.84c0,0,42.2,7.52,117.06,60.32l-.46,1.52Z"/>
    </g>
    <path class="cls-3" d="M266.87,444.52s2.58-187.2,4.4-268.33c0,0,6.99,246.14,7.52,268.33,0,0-4.99,5.33-11.92,0Z"/>
  </g>
  <polyline class="cls-2" points="119.45 448.41 138.44 448.41 138.44 446.35 119.45 446.35 119.46 420.93 129.88 420.93 129.88 418.87 119.46 418.87 119.46 392.01 138.44 392.01 138.44 389.96 119.46 389.96 119.46 364.54 129.88 364.54 129.88 362.48 119.46 362.48 119.46 335.62 138.44 335.62 138.44 333.56 119.46 333.56 119.46 308.14 129.88 308.14 129.88 306.08 119.46 306.08 119.46 279.23 138.44 279.23 138.44 277.17 119.46 277.17 119.47 251.75 129.88 251.75 129.88 249.69 119.47 249.69 119.47 222.83 138.44 222.83 138.44 220.77 119.47 220.77 119.47 195.35 129.88 195.35 129.88 193.3 119.47 193.3 119.47 166.44 138.44 166.44 138.44 164.38 119.47 164.38 119.47 138.96 129.88 138.96 129.88 136.9 119.47 136.9 119.47 110.04 138.44 110.04 138.44 107.99 119.47 107.99 119.48 82.57 129.88 82.57 129.88 80.51 119.48 80.51 119.48 53.65 138.44 53.65 138.44 51.59 117.42 51.59 117.42 52.66 117.42 80.51 117.37 80.51 117.37 82.57 117.42 82.57 117.42 107.99 117.37 107.99 117.37 110.04 117.42 110.04 117.42 136.9 117.37 136.9 117.37 138.96 117.42 138.96 117.41 164.38 117.37 164.38 117.37 166.44 117.41 166.44 117.41 193.3 117.37 193.3 117.37 195.35 117.41 195.35 117.41 220.77 117.37 220.77 117.37 222.83 117.41 222.83 117.41 249.69 117.37 249.69 117.37 251.75 117.41 251.75 117.41 277.17 117.37 277.17 117.37 279.23 117.41 279.23 117.41 306.08 117.37 306.08 117.37 308.14 117.41 308.14 117.4 333.56 117.37 333.56 117.37 335.62 117.4 335.62 117.4 362.48 117.37 362.48 117.37 364.54 117.4 364.54 117.4 389.96 117.37 389.96 117.37 392.01 117.4 392.01 117.4 418.87 117.37 418.87 117.37 420.93 117.4 420.93 117.4 446.35 117.37 446.35 117.37 448.41 117.4 448.41"/>
</svg>