<?xml version="1.0" encoding="UTF-8"?>
<svg id="Layer_1" xmlns="http://www.w3.org/2000/svg" version="1.1" viewBox="0 0 4665.3 925.2">
  <!-- Generator: Adobe Illustrator 29.1.0, SVG Export Plug-In . SVG Version: 2.1.0 Build 142)  -->
  <defs>
    <style>
      .st0 {
        fill: none;
      }

      .st1 {
        fill: #fff;
      }

      .st2 {
        fill: #d64a99;
      }
    </style>
  </defs>
  <rect class="st0" x="-17.4" y="-19.2" width="4702.9" height="962.3"/>
  <g>
    <path class="st1" d="M655.1,589.8c0,42.8-7.8,83.2-23.4,120.8-15.5,37.8-36.6,70.3-63.5,97.5s-58.9,48.8-96.3,64.8c-37.3,15.9-77,23.9-119,23.9s-65.3-5.2-95.7-15.3c-30.3-10.1-58.3-24.7-84-44.3v50.1H57.8V70.8l116.5-25.7v304.5c24.2-21,51.8-37.1,82.8-48.5,31.1-11.2,63.8-16.9,98.1-16.9s81.2,8,117.7,23.9c36.6,15.9,68.4,37.6,95.2,64.8,26.9,27.2,48,59.6,63.5,96.8,15.7,37.2,23.5,77.4,23.5,120.1ZM340,385.7c-33.4,0-64.4,6.2-93.3,18.7-28.8,12.4-52.9,29.9-72.4,52.4v268.4c18.7,21.8,42.6,38.9,71.8,51.3,29.1,12.5,60.5,18.7,93.9,18.7,56.8,0,104.5-19.4,142.9-58.3,38.6-38.9,57.8-87.6,57.8-145.8s-19.4-107.2-58.3-146.5-86.4-58.9-142.4-58.9Z"/>
    <path class="st1" d="M835.1,45.1v842.2h-116.5V70.8l116.5-25.7Z"/>
    <path class="st1" d="M1023.2,293.6v352.2c0,46.7,13.3,83.7,40.2,110.8,26.9,27.3,62.3,40.8,106.8,40.8s59.1-6.7,84-20.3c24.9-13.7,45.4-32.9,61.8-57.8v-425.7h116.7v593.7h-116.7v-59.4c-23.4,23.3-50,41-79.9,53.1-29.9,12-62.8,18.1-98.6,18.1-67.7,0-123-21.8-166.2-65.3-43.3-43.6-64.8-99.6-64.8-168.1v-372h116.7Z"/>
    <path class="st1" d="M2037.4,819.7c-34.3,26.4-70,46.1-107.4,58.8-37.3,12.9-78.1,19.4-122.4,19.4s-84.5-8-122.5-23.9c-38.1-15.9-71.1-37.6-99.1-64.8s-50-59.7-65.9-97.5c-15.9-37.6-23.9-78.3-23.9-121.9s7.8-82.8,23.3-120.1c15.6-37.3,36.6-69.7,63-96.8,26.5-27.2,57.9-48.8,94.6-64.8,36.5-15.9,75.4-23.9,116.7-23.9s78.3,8,113.8,23.9c35.3,15.9,65.6,37.8,91,65.4,25.2,27.5,45.2,60.4,60.1,98.5,14.6,38.2,22.1,79.1,22.1,122.5v33.9h-469c7.8,49,30.4,89.7,67.7,121.9,37.4,32.2,81.7,48.3,133,48.3s56.5-4.6,82.8-14c26.5-9.3,49-22.1,67.7-38.4l74.4,73.5ZM1791.2,382.3c-44.3,0-83,14.6-116,44.3s-53.9,67.7-62.3,114.2h352.1c-8.5-45.1-29-82.8-61.2-113.1s-69.8-45.4-112.6-45.4Z"/>
    <path class="st1" d="M2973.7,584.1c0,43.5-8.1,84.3-24.6,122.4-16.3,38.1-38.4,71.1-66.4,99.1-28,28.2-61.4,50.1-99.8,65.9-38.6,15.9-79.6,23.9-123,23.9s-59.9-4.2-88.7-12.7c-28.8-8.6-55.2-20.7-79.3-36.3v40.8h-157.5V70.8l159.8-35v291.6c24.1-17.9,50.8-31.7,79.9-41.5s59.2-14.5,90.3-14.5,83,8.1,120.8,24.4,70.6,38.6,98.6,66.6,50,61,65.9,99.1c16,38.1,24,79,24,122.6ZM2638.9,407.8c-28.8,0-55.7,4.9-80.6,14.6-24.9,9.8-46.2,23.9-64.1,42.5v239.2c17.1,17.1,38.2,30.8,63.5,40.8,25.4,10.1,52.4,15.1,81.2,15.1,49.6,0,91.6-16.9,126-50.8,34.2-33.9,51.3-75.7,51.3-125.3s-17.3-91.6-51.9-125.5c-34.5-33.7-76.4-50.6-125.4-50.6Z"/>
    <path class="st1" d="M3610,811.4c-37.4,30.4-75.7,52.6-114.9,66.6-39.4,14-83,21-131.3,21s-88.9-8.1-128.9-24.6c-40-16.3-74.5-38.4-103.8-66.4-29.1-28-52.1-61.2-68.8-99.8-16.6-38.6-25.1-79.9-25.1-124.2s8-84.6,23.9-123.2c15.9-38.4,37.9-71.9,65.9-100.3s61.4-50.8,99.8-67.1c38.6-16.4,79.6-24.6,123-24.6s82.7,8.5,119.6,25.1c36.9,16.8,68.8,39.5,95.7,68.4,26.9,28.6,47.8,63.1,63,103.2,15.1,40,22.8,83.5,22.8,130v42h-452.8c10.9,38.1,31.9,68.8,63.1,92.3,31.1,23.3,67.5,35,109.5,35s51.4-4.4,74.7-12.9c23.3-8.6,43.1-20.7,59.6-36.1l105,95.6ZM3346.4,400.8c-36.6,0-68,11.1-94.6,33.2-26.4,22.3-44.8,51.9-54.8,89.3h297.5c-10.1-35.8-28.5-65.1-55.3-88-26.9-22.9-57.8-34.5-92.8-34.5Z"/>
    <path class="st1" d="M4287.2,811.4c-37.4,30.4-75.7,52.6-114.9,66.6-39.4,14-83,21-131.3,21s-88.9-8.1-128.9-24.6c-40-16.3-74.5-38.4-103.8-66.4-29.1-28-52.1-61.2-68.8-99.8-16.6-38.6-25.1-79.9-25.1-124.2s8-84.6,23.9-123.2c15.9-38.4,37.9-71.9,65.9-100.3,28-28.3,61.4-50.8,99.8-67.1,38.6-16.4,79.6-24.6,123-24.6s82.7,8.5,119.6,25.1c36.9,16.8,68.8,39.5,95.7,68.4,26.9,28.6,47.8,63.1,63,103.2s22.8,83.5,22.8,130v42h-452.8c10.9,38.1,31.9,68.8,63.1,92.3,31.1,23.3,67.5,35,109.5,35s51.4-4.4,74.7-12.9c23.3-8.6,43.1-20.7,59.6-36.1l105,95.6ZM4023.6,400.8c-36.6,0-68,11.1-94.6,33.2-26.4,22.3-44.8,51.9-54.8,89.3h297.5c-10.1-35.8-28.5-65.1-55.3-88-26.9-22.9-57.8-34.5-92.8-34.5Z"/>
    <circle class="st2" cx="4511.4" cy="802.9" r="96.1"/>
  </g>
</svg>