<?xml version="1.0" encoding="utf-8"?>
<!-- Generator: Adobe Illustrator 28.0.0, SVG Export Plug-In . SVG Version: 6.00 Build 0)  -->
<svg version="1.1" id="Layer_1" xmlns="http://www.w3.org/2000/svg" xmlns:xlink="http://www.w3.org/1999/xlink" x="0px" y="0px"
	 viewBox="0 0 4665.3 909.2" style="enable-background:new 0 0 4665.3 909.2;" xml:space="preserve">
<style type="text/css">
	.st0{fill:#212222;}
	.st1{fill:#FFFFFF;}
	.st2{fill:#D64A99;}
</style>
<g>
	<path class="st0" d="M655.1,578.5c0,42.8-7.8,83.2-23.4,120.8c-15.5,37.8-36.6,70.3-63.5,97.5c-26.9,27.2-58.9,48.8-96.3,64.8
		c-37.3,15.9-77,23.9-119,23.9c-33.4,0-65.3-5.2-95.7-15.3c-30.3-10.1-58.3-24.7-84-44.3V876H57.8V59.5l116.5-25.7v304.5
		c24.2-21,51.8-37.1,82.8-48.5c31.1-11.2,63.8-16.9,98.1-16.9c42,0,81.2,8,117.7,23.9c36.6,15.9,68.4,37.6,95.2,64.8
		c26.9,27.2,48,59.6,63.5,96.8C647.3,495.7,655.1,535.9,655.1,578.5z M340,374.4c-33.4,0-64.4,6.2-93.3,18.7
		c-28.8,12.4-52.9,29.9-72.4,52.4v268.4c18.7,21.8,42.6,38.9,71.8,51.3c29.1,12.5,60.5,18.7,93.9,18.7c56.8,0,104.5-19.4,142.9-58.3
		c38.6-38.9,57.8-87.6,57.8-145.8c0-58.4-19.4-107.2-58.3-146.5S396,374.4,340,374.4z"/>
	<path class="st0" d="M835.1,33.8V876H718.6V59.5L835.1,33.8z"/>
	<path class="st0" d="M1023.2,282.3v352.2c0,46.7,13.3,83.7,40.2,110.8c26.9,27.3,62.3,40.8,106.8,40.8c31.1,0,59.1-6.7,84-20.3
		c24.9-13.7,45.4-32.9,61.8-57.8V282.3h116.7V876H1316v-59.4c-23.4,23.3-50,41-79.9,53.1c-29.9,12-62.8,18.1-98.6,18.1
		c-67.7,0-123-21.8-166.2-65.3c-43.3-43.6-64.8-99.6-64.8-168.1v-372H1023.2z"/>
	<path class="st0" d="M2037.4,808.5c-34.3,26.4-70,46.1-107.4,58.8c-37.3,12.9-78.1,19.4-122.4,19.4c-43.6,0-84.5-8-122.5-23.9
		c-38.1-15.9-71.1-37.6-99.1-64.8c-28-27.2-50-59.7-65.9-97.5c-15.9-37.6-23.9-78.3-23.9-121.9c0-42.6,7.8-82.8,23.3-120.1
		c15.6-37.3,36.6-69.7,63-96.8c26.5-27.2,57.9-48.8,94.6-64.8c36.5-15.9,75.4-23.9,116.7-23.9c40.4,0,78.3,8,113.8,23.9
		c35.3,15.9,65.6,37.8,91,65.4c25.2,27.5,45.2,60.4,60.1,98.5c14.6,38.2,22.1,79.1,22.1,122.5v33.9h-469
		c7.8,49,30.4,89.7,67.7,121.9c37.4,32.2,81.7,48.3,133,48.3c28.8,0,56.5-4.6,82.8-14c26.5-9.3,49-22.1,67.7-38.4L2037.4,808.5z
		 M1791.2,371c-44.3,0-83,14.6-116,44.3c-33,29.6-53.9,67.7-62.3,114.2H1965c-8.5-45.1-29-82.8-61.2-113.1
		C1871.6,386.1,1834,371,1791.2,371z"/>
	<path class="st0" d="M2973.7,572.8c0,43.5-8.1,84.3-24.6,122.4c-16.3,38.1-38.4,71.1-66.4,99.1c-28,28.2-61.4,50.1-99.8,65.9
		c-38.6,15.9-79.6,23.9-123,23.9c-30.4,0-59.9-4.2-88.7-12.7c-28.8-8.6-55.2-20.7-79.3-36.3V876h-157.5V59.5l159.8-35v291.6
		c24.1-17.9,50.8-31.7,79.9-41.5s59.2-14.5,90.3-14.5c42.8,0,83,8.1,120.8,24.4c37.8,16.3,70.6,38.6,98.6,66.6
		c28,28,50,61,65.9,99.1C2965.7,488.4,2973.7,529.2,2973.7,572.8z M2638.9,396.6c-28.8,0-55.7,4.9-80.6,14.6s-46.2,23.9-64.1,42.5
		v239.2c17.1,17.1,38.2,30.8,63.5,40.8c25.4,10.1,52.4,15.1,81.2,15.1c49.6,0,91.6-16.9,126-50.8c34.2-33.9,51.3-75.7,51.3-125.3
		c0-49.8-17.3-91.6-51.9-125.5C2729.8,413.5,2687.9,396.6,2638.9,396.6z"/>
	<path class="st0" d="M3610,800.2c-37.4,30.4-75.7,52.6-114.9,66.6c-39.4,14-83,21-131.3,21c-45.9,0-88.9-8.1-128.9-24.6
		c-40-16.3-74.5-38.4-103.8-66.4c-29.1-28-52.1-61.2-68.8-99.8c-16.6-38.6-25.1-79.9-25.1-124.2c0-43.6,8-84.6,23.9-123.2
		c15.9-38.4,37.9-71.9,65.9-100.3c28-28.3,61.4-50.8,99.8-67.1c38.6-16.4,79.6-24.6,123-24.6c42.8,0,82.7,8.5,119.6,25.1
		c36.9,16.8,68.8,39.5,95.7,68.4c26.9,28.6,47.8,63.1,63,103.2c15.1,40,22.8,83.5,22.8,130v42h-452.8c10.9,38.1,31.9,68.8,63.1,92.3
		c31.1,23.3,67.5,35,109.5,35c26.5,0,51.4-4.4,74.7-12.9c23.3-8.6,43.1-20.7,59.6-36.1L3610,800.2z M3346.4,389.6
		c-36.6,0-68,11.1-94.6,33.2c-26.4,22.3-44.8,51.9-54.8,89.3h297.5c-10.1-35.8-28.5-65.1-55.3-88
		C3412.3,401.1,3381.4,389.6,3346.4,389.6z"/>
	<path class="st0" d="M4287.2,800.2c-37.4,30.4-75.7,52.6-114.9,66.6c-39.4,14-83,21-131.3,21c-45.9,0-88.9-8.1-128.9-24.6
		c-40-16.3-74.5-38.4-103.8-66.4c-29.1-28-52.1-61.2-68.8-99.8c-16.6-38.6-25.1-79.9-25.1-124.2c0-43.6,8-84.6,23.9-123.2
		c15.9-38.4,37.9-71.9,65.9-100.3c28-28.3,61.4-50.8,99.8-67.1c38.6-16.4,79.6-24.6,123-24.6c42.8,0,82.7,8.5,119.6,25.1
		c36.9,16.8,68.8,39.5,95.7,68.4c26.9,28.6,47.8,63.1,63,103.2s22.8,83.5,22.8,130v42h-452.8c10.9,38.1,31.9,68.8,63.1,92.3
		c31.1,23.3,67.5,35,109.5,35c26.5,0,51.4-4.4,74.7-12.9c23.3-8.6,43.1-20.7,59.6-36.1L4287.2,800.2z M4023.6,389.6
		c-36.6,0-68,11.1-94.6,33.2c-26.4,22.3-44.8,51.9-54.8,89.3h297.5c-10.1-35.8-28.5-65.1-55.3-88
		C4089.5,401.1,4058.6,389.6,4023.6,389.6z"/>
	<circle class="st2" cx="4511.4" cy="791.6" r="96.1"/>
</g>
</svg>
