<svg xmlns="http://www.w3.org/2000/svg" width="70" height="70" viewBox="0 0 70 70"><path d="M1420-615a35.039,35.039,0,0,1,35-35,35.04,35.04,0,0,1,35,35,35.04,35.04,0,0,1-35,35A35.04,35.04,0,0,1,1420-615Zm4,0a31.035,31.035,0,0,0,31,31,31.035,31.035,0,0,0,31-31,31.035,31.035,0,0,0-31-31A31.036,31.036,0,0,0,1424-615Zm29.31,14.3c-7.8-6.9-12.9-11.551-12.9-17.25a8.133,8.133,0,0,1,8.25-8.25,9.018,9.018,0,0,1,6.75,3.15,9.015,9.015,0,0,1,6.75-3.15,8.132,8.132,0,0,1,8.249,8.25c0,5.55-5.25,10.2-12.9,17.25l-2.1,1.949Zm-9.9-17.25c0,4.35,4.65,8.55,11.85,15l.15.149h.15c7.2-6.6,11.849-10.8,11.849-15.15a5.126,5.126,0,0,0-5.25-5.25,5.719,5.719,0,0,0-5.251,3.6h-2.849a6.092,6.092,0,0,0-5.4-3.6A5.127,5.127,0,0,0,1443.409-617.95Z" transform="translate(-1420 650)" opacity="0.446"/></svg>